<?xml version="1.0" encoding="utf-8"?>
<!-- Generator: Adobe Illustrator 16.2.1, SVG Export Plug-In . SVG Version: 6.00 Build 0)  -->
<!DOCTYPE svg PUBLIC "-//W3C//DTD SVG 1.1//EN" "http://www.w3.org/Graphics/SVG/1.1/DTD/svg11.dtd">
<svg version="1.1" id="Layer_1" xmlns="http://www.w3.org/2000/svg" xmlns:xlink="http://www.w3.org/1999/xlink" x="0px" y="0px"
	 width="320px" height="320px" viewBox="0 0 320 320" enable-background="new 0 0 320 320" xml:space="preserve">
<rect x="-154.639" y="87.348" fill="#ABABAB" width="55.488" height="55.488"/>
<rect x="-154.639" y="16.162" width="55.488" height="55.488"/>
<g>
	<path d="M277.972,150.656l0.023,0.457l0.275-0.008c0.25-0.013,0.596,0.022,0.585-0.227c-0.002-0.234-0.204-0.245-0.423-0.236
		L277.972,150.656z M279.146,152.189l-0.305,0.004l-0.503-0.828L278,151.38l0.025,0.848l-0.262,0.008l-0.067-1.833l0.774-0.029
		c0.333-0.017,0.641,0.073,0.647,0.464c0.017,0.36-0.227,0.501-0.471,0.519L279.146,152.189z M276.992,151.336
		c0.025,0.768,0.672,1.34,1.417,1.323c0.751-0.032,1.346-0.649,1.329-1.422c-0.032-0.774-0.68-1.347-1.423-1.319
		C277.566,149.948,276.967,150.562,276.992,151.336 M276.727,151.34c-0.033-0.909,0.662-1.652,1.58-1.686
		c0.912-0.034,1.664,0.663,1.692,1.574c0.029,0.912-0.668,1.658-1.579,1.689C277.504,152.953,276.754,152.253,276.727,151.34"/>
	<path d="M90.723,137.053c-1.309,0.015-1.268,1.984-1.268,1.984c0.165,7.526,5.995,9.395,5.995,9.395
		c2.21,1.343,2.638-0.509,2.638-0.509l1.793-3.438l-3.243-7.683L90.723,137.053z M99.776,122.565l8.721,19.925
		c0.98,2.18,2.265,0.695,2.265,0.695c1.375-0.811,1.905-0.356,1.905-0.356c0.886,0.636,0.079,1.549,0.079,1.549l-3.37,6.542
		c-0.918,2.469-3.395,0.24-3.395,0.24c-0.884-0.442-3.475-2.6-3.475-2.6c-0.877-1.441-1.913-0.02-1.913-0.02l-3.784,6.799
		c-1.216,2.795-4.719,1.006-4.719,1.006c-12.196-4.071-5.178-19.891-5.178-19.891c0.714-2.758,2.349-2.338,2.349-2.338l6.241-0.216
		c-0.223-1.898-2.667-6.038-2.667-6.038c-0.637-1.511-1.679-1.219-1.679-1.219l-10.471,0.663c-0.927,0.122-0.843-0.625-0.843-0.625
		c-0.221-0.661,0.873-1.165,0.873-1.165c2.052-0.782,3.863-4.032,3.863-4.032c1.327-1.799,2.902-1.38,2.902-1.38l6.28-0.277
		C98.418,119.601,99.776,122.565,99.776,122.565"/>
	<path d="M260.32,141.515l-6.072,1.085c0,0-1.043,0.156-0.912,0.764c0,0,0.037,0.616,0.715,0.79l0.694,0.468
		c0,0,1.575,0.742,0.155,2.7l-7.767,12.805c0,0-3.824,5.971-2.357,10.716c0.617,2.021-1.482,5.062-1.541,4.999
		c0,0-0.282-2.123-5.619-4.531c0,0-1.703-1.104-3.323,0.42l-2.163,1.809c0,0-1.072,1.033,0.107,1.241c0,0,2.797,0.951,5.832,4.734
		c0,0,1.177,1.941,3.772,1.731c0,0,4.894-0.283,8.249-6.645c0.708-0.413,3.753,3.71,12.624-2.48
		c7.104-4.964,12.539-11.062,12.412-20.621c0,0,0.217-2.779-2.232-2.141l-3.828,0.382c0,0-2.102-0.181-1.834,2.346
		c0,0,0.836,13.071-13.27,15.784c0,0-2.695,0.848-1.612-1.547c0,0,5.482-9.644,9.145-14.289c0,0,4.406-4.715,1.65-9.257l-0.58-0.841
		C262.567,141.938,262.229,141.083,260.32,141.515"/>
	<path d="M154.88,122.919c-1.205-0.479-1.906,1.375-1.906,1.375c-2.674,7.044,2.06,10.948,2.06,10.948
		c1.549,2.061,2.629,0.521,2.629,0.521l2.951-2.52l-0.138-8.339L154.88,122.919z M168.873,113.604l0.479,20.993
		c0.104,2.386,1.845,1.471,1.845,1.471c1.582-0.229,1.896,0.397,1.896,0.397c0.592,0.909-0.515,1.457-0.515,1.457l-5.551,4.821
		c-1.771,1.935-3.233-1.046-3.233-1.046c-0.662-0.749-2.246-3.706-2.246-3.706c-0.288-1.656-1.783-0.742-1.783-0.742l-6.057,4.913
		c-2.162,2.13-4.74-0.836-4.74-0.836c-9.802-8.315,2.612-20.391,2.612-20.391c1.699-2.282,3.054-1.296,3.054-1.296l5.864,2.141
		c0.507-1.855-0.22-6.615-0.22-6.615c-0.036-1.634-1.085-1.748-1.085-1.748l-9.986-3.282c-0.886-0.238-0.542-0.9-0.542-0.9
		c0.052-0.697,1.245-0.744,1.245-0.744c2.204,0.039,5.096-2.308,5.096-2.308c1.898-1.167,3.2-0.207,3.2-0.207l5.945,2.107
		C168.832,109.6,168.873,113.604,168.873,113.604"/>
	<path d="M205.419,120.185l-1.788,6.932l-0.51,2.021l-1.854,7.091c-1.052,3.206-0.047,3.341-0.047,3.341l4.311,3.081
		c0.932,0.682,1.115-0.927,1.115-0.927l5.799-17.72c0.866-3.155-0.124-4.076-0.124-4.076l-0.488-0.866c-1.176-1.536,0-1.778,0-1.778
		l4.692-1.862c1.799-0.928,2.343,0.561,2.343,0.561c3.644,4.632,1.61,9.876,1.61,9.876l-6.733,19.816
		c-0.556,2.168-2.171,1.422-2.171,1.422c-4.5-0.372-8.208,1.727-8.208,1.727c-1.908,1.424-3.206-0.549-3.206-0.549
		c-0.304-0.375-5.25-3.839-5.25-3.839c-2.282-1.854-4.136-0.498-4.136-0.498l-2.157,1.06c-1.927,1.546-2.902-0.308-2.902-0.308
		c-2.233-3.709-8.957-6.058-8.957-6.058c-0.863,0-0.995-0.733-0.995-0.733c-0.179-0.616,0.686-1.047,0.686-1.047l0.985-0.871
		c1.047-0.922,0.991-1.918,0.991-1.918l2.803-21.778c0.838-5.779-0.504-5.976-0.504-5.976c-1-0.446-0.595-1.163-0.595-1.163
		c0.23-0.468,0.836-0.25,0.836-0.25c8.745,1.309,8.857,5.914,8.857,5.914l-3.496,22.889c-0.434,2.908,0.928,2.957,0.928,2.957
		l3.203,2.042c2.104,1.61,2.42-1.791,2.42-1.791l4.19-16.427l0.107-0.436c0.395-3.188-1.222-4.208-1.222-4.208
		c-1.427-1.175,0.183-1.866,0.183-1.866l3.704-2.149c1.736-0.927,2.286,0.06,2.286,0.06
		C206.44,115.998,205.419,120.185,205.419,120.185"/>
	<path d="M107.656,112.206l7.412,24.498c0,0,1.631,4.307,0.053,6.254c0,0-0.75,0.313-0.48,1.047c0,0,0.079,0.554,1.205,0.588
		c0,0,6.557,0.09,8.592,1.818c0,0,1.723,1.656,2.646-0.287c0,0-1.286-4.667-2.453-7.961l-10.879-34.444c0,0-1.083-2.683,0.713-5.625
		c0,0,0.918-0.996,0.154-1.626c0,0-0.667-0.565-1.811,0.281c0,0-2.149,1.407-4.393,5.036
		C108.417,101.786,106.062,106.582,107.656,112.206"/>
	<path d="M127.75,106.541l4.066,26.216c0,0,1.017,4.491-0.821,6.201c0,0-0.783,0.212-0.611,0.968c0,0-0.018,0.554,1.085,0.738
		c0,0,6.754,0.793,8.528,2.776c0,0,1.48,1.905,2.656,0.103c0,0-0.872-4.575-1.566-8.004l-5.929-35.63c0,0-0.697-2.801,1.496-5.461
		c0,0,1.062-0.871,0.395-1.602c0,0-0.583-0.643-1.836,0.029c0,0-2.323,1.093-5.068,4.375
		C130.14,97.251,126.968,100.748,127.75,106.541"/>
	<path d="M57.583,162.208c0.545,2.229-1.049,2.563-1.049,2.563c-0.956,0.484-1.967-0.108-1.967-0.108
		c-1.085-0.497-1.876-1.119-1.876-1.119c-2.07-1.309-4.397-3.979-5.729-6.795c-3.974-8.356-0.406-16.013,1.298-17.974
		c0,0,0.628-0.961,1.162-1.227c0,0,0.974-0.996,1.662,0.049c0,0,0.448,0.843,0.379,2.031c0,0-0.002,0.815-0.088,1.312
		c-0.126,1.205-0.873,2.942-0.809,4.253c0.08,1.563,0.746,3.322,1.312,4.379c1.486,2.762,4.59,8.989,5.113,10.587
		C57.424,161.31,57.583,162.208,57.583,162.208 M86.398,159.701c1.614-2.66,0.312-3.912-0.71-4.257
		c-3.65-1.278-5.13,8.291-12.524,11.268c-8.249,3.302-10.488,1.148-11.208-0.07c-1.503-2.569,2.857-7.97-0.227-14.821
		c-3.557-7.925-7.648-12.854-5.701-16.423c1.93-3.494,7.576-2.932,10.218-2.971c5.338-0.073,6.151-6.863,5.41-8.511
		c-0.356-0.797-1.229-0.927-2.008-0.579c-2.65,1.184-3.279,1.746-5.602,2.106c-2.344,0.365-3.813,0.532-9.077,1.624
		c-4.281,0.886-20.651,12.978-12.925,33.904c6.366,17.206,24.963,16.352,31.692,13.538C81.16,171.398,84.712,162.466,86.398,159.701
		"/>
	<path d="M231.414,140.313c-0.854-0.973-2.312,0.36-2.312,0.36c-5.575,5.077-3.111,10.705-3.111,10.705
		c0.443,2.531,2.114,1.634,2.114,1.634l3.768-0.901l3.639-7.503L231.414,140.313z M248.11,138.318l-9.065,18.954
		c-0.99,2.17,0.982,2.149,0.982,2.149c1.515,0.504,1.507,1.2,1.507,1.2c0.124,1.096-1.114,1.07-1.114,1.07l-7.132,1.791
		c-2.45,0.921-2.414-2.393-2.414-2.393c-0.253-0.964-0.328-4.331-0.328-4.331c0.508-1.608-1.251-1.459-1.251-1.459l-7.625,1.644
		c-2.885,0.914-3.845-2.902-3.845-2.902c-4.989-11.861,11.549-16.99,11.549-16.99c2.544-1.284,3.305,0.219,3.305,0.219l4.269,4.556
		c1.289-1.428,2.792-5.999,2.792-5.999c0.712-1.46-0.193-2.04-0.193-2.04l-7.403-7.434c-0.686-0.614-0.081-1.053-0.081-1.053
		c0.363-0.606,1.438-0.105,1.438-0.105c1.959,1.034,5.592,0.238,5.592,0.238c2.227-0.179,2.947,1.263,2.947,1.263l4.354,4.571
		C249.882,134.744,248.11,138.318,248.11,138.318"/>
	<path d="M157.573,227.435c1.956,0.005,3.903-1.555,5.932-4.746c0,0,28.103-43.936,29.903-46.602c2.604-3.853-2.227-9.355-6.5-4.589
		c0,0-21.768,23.458-24.513,26.604c-1.771,2.02-3.131,3.076-4.824,3.076c-1.694,0-3.067-1.056-4.826-3.076
		c-2.758-3.148-24.522-26.604-24.522-26.604c-4.272-4.767-9.101,0.736-6.495,4.589c1.799,2.666,29.896,46.602,29.896,46.602
		C153.66,225.88,155.606,227.441,157.573,227.435"/>
</g>
</svg>
