<?xml version="1.0" encoding="utf-8"?>
<!-- Generator: Adobe Illustrator 16.2.1, SVG Export Plug-In . SVG Version: 6.00 Build 0)  -->
<!DOCTYPE svg PUBLIC "-//W3C//DTD SVG 1.1//EN" "http://www.w3.org/Graphics/SVG/1.1/DTD/svg11.dtd">
<svg version="1.1" id="Layer_1" xmlns="http://www.w3.org/2000/svg" xmlns:xlink="http://www.w3.org/1999/xlink" x="0px" y="0px"
	 width="320px" height="320px" viewBox="0 0 320 320" enable-background="new 0 0 320 320" xml:space="preserve">
<rect x="-154.639" y="87.348" fill="#ABABAB" width="55.488" height="55.488"/>
<rect x="-154.639" y="16.162" width="55.488" height="55.488"/>
<g>
	<path d="M70.641,132.127L40,162.703h36.392l9.072,25.52l9.07-25.52h36.392l-30.641-30.575L70.641,132.127L70.641,132.127z
		 M57.422,155.497l12.113-12.087l4.296,12.087H57.422z M85.464,166.707l-9.73-27.374h19.459L85.464,166.707z M113.504,155.497
		H97.096l4.296-12.087L113.504,155.497z"/>
	<path d="M159.451,139.683c-2.721-4.724-7.818-7.906-13.661-7.906c-8.706,0-15.763,7.057-15.763,15.762
		c0,8.706,7.057,15.764,15.763,15.764c5.843,0,10.939-3.182,13.661-7.906v7.005h22.669v-8.558h-12.761v-2.852h12.761v-7.506h-12.761
		v-2.852h12.761v-8.857h-22.669V139.683z M159.451,148.966h-8.298c-0.63,2.375-2.79,4.129-5.363,4.129
		c-3.068,0-5.555-2.487-5.555-5.554c0-3.068,2.487-5.555,5.555-5.555c2.573,0,4.733,1.752,5.363,4.128h8.298V148.966z"/>
	<polygon points="280,131.777 267.84,131.777 259.283,143.486 259.433,131.777 249.225,131.777 249.225,162.402 259.433,162.402 
		259.583,156.097 261.985,153.095 267.69,162.402 280,162.402 268.891,145.438 	"/>
	<polygon points="195.03,131.777 184.822,131.777 184.822,162.402 203.438,162.402 206.439,153.845 194.88,153.845 	"/>
	<polygon points="198.032,140.634 208.141,140.634 208.092,162.402 217.999,162.402 217.999,140.634 223.703,140.634 
		223.703,162.402 246.372,162.402 246.372,153.845 233.611,153.845 233.611,150.993 246.372,150.993 246.372,143.486 
		233.611,143.486 233.611,140.634 246.372,140.634 246.372,131.777 198.032,131.777 	"/>
</g>
</svg>
