<?xml version="1.0" encoding="utf-8"?>
<!-- Generator: Adobe Illustrator 16.2.1, SVG Export Plug-In . SVG Version: 6.00 Build 0)  -->
<!DOCTYPE svg PUBLIC "-//W3C//DTD SVG 1.1//EN" "http://www.w3.org/Graphics/SVG/1.1/DTD/svg11.dtd">
<svg version="1.1" id="Layer_1" xmlns="http://www.w3.org/2000/svg" xmlns:xlink="http://www.w3.org/1999/xlink" x="0px" y="0px"
	 width="320px" height="320px" viewBox="0 0 320 320" enable-background="new 0 0 320 320" xml:space="preserve">
<rect x="-154.639" y="87.348" fill="#ABABAB" width="55.488" height="55.488"/>
<rect x="-154.639" y="16.162" width="55.488" height="55.488"/>
<g>
	<path d="M293.749,162.688l-2.247,5.552l4.172-0.011l-2.191,5.015l-23.111-0.028l2.021-4.984l4.793-0.006l7.149-16.377l-4.815,0.002
		l1.605-4.987l31.042-0.01c5.558,0,7.184,0.721,7.808,2.843c0.179,2.319-0.614,3.749-1.467,5.834
		c-1.122,2.732-3.993,7.192-9.812,7.151L293.749,162.688z M301.646,157.634c2.146-0.032,2.446-1.138,2.732-1.52
		c0.463-0.962,0.686-1.401,0.984-2.176c0.271-0.675,0.316-2.092-1.678-2.068c-1.619-0.07-5.131-0.022-5.131-0.022l-2.396,5.788
		C296.159,157.636,300.557,157.608,301.646,157.634"/>
	<path d="M58.206,173.212l2.197-4.978l4.621-0.006l7.292-16.362l-4.28-0.018l2.107-5.001l32.798,0.032
		c1.733,0.429,3.562,1.236,4.539,2.923c2.367,4.325-0.795,8.571-2.225,12.479c-2.249,4.533-5.7,10.085-11.332,10.679l-2.264,0.252
		H58.206z M84.871,168.225c1.246-0.072,1.818-0.338,2.853-1.305c2.083-2.449,5.623-10.701,5.721-13.294
		c0.133-0.88-0.713-1.77-2.049-1.756c-2.002,0.024-5.397,0-5.397,0l-7.352,16.387C78.645,168.255,82.65,168.24,84.871,168.225"/>
	<path d="M247.566,173.395c-3.106-0.01-5.323-0.129-8.377-0.31c-2.701-0.085-5.446-1.134-6.608-3.64
		c-1.317-3.846,0.528-6.303,2.155-9.701c2.953-6.128,4.435-10.184,9.146-11.885c4.091-1.653,8.956-1.188,13.587-1.492
		c4.475-0.016,8.711,0.167,13.051,0.68c2.168,0.478,4.768,1.283,5.545,3.737c0.694,3.209-1.418,6.353-1.885,7.651
		c-2.604,5.561-2.688,5.857-4.97,9.411c-1.905,2.969-6.181,4.819-9.312,5.024c-3.588,0.366-8.065,0.521-11.699,0.524H247.566
		L247.566,173.395L247.566,173.395z M257.943,164.2c1.438-3.043,2.736-5.457,3.914-8.575c0.469-1.236,1.44-4.627-4.394-4.651
		c-5.666-0.059-6.959,2.74-7.547,4.081c-0.97,2.229-3.61,7.025-3.958,8.781c-1.254,4.264,2.211,4.453,3.797,4.421
		C249.757,168.255,255.816,168.812,257.943,164.2"/>
	<path d="M147.786,151.834c0,0-4.313,11.182-7.235,16.055c-2.491,4.149-7.342,5.272-11.869,5.526
		c-4.861,0.262-9.966,0.467-14.589-0.284c-2.121-0.473-4.053-2.398-4.449-4.562c-0.34-1.486,0.142-2.889,0.756-4.19
		c1.876-3.954,5.315-12.527,5.315-12.527h-4.564l2.176-4.998l23.155,0.026l-2.005,4.991l-4.464-0.02l-5.358,12.578
		c-0.384,1.016-0.334,2.027,0.439,2.84c1.691,1.44,4.483,1.287,6.559,0.799c1.779-0.533,3.41-2.133,4.172-3.77l5.339-12.431
		l-4.17-0.022l2.132-4.987h15.277l-2.166,5.003L147.786,151.834z"/>
	<polygon points="193.059,151.866 183.852,173.244 172.835,173.212 164.411,157.081 159.503,168.255 163.831,168.223 
		161.725,173.201 145.623,173.208 147.786,168.229 152.76,168.249 159.768,151.854 155.224,151.858 157.133,146.851 
		173.568,146.847 181.585,162.615 186.15,151.844 182.008,151.834 183.977,146.887 199.582,146.877 197.621,151.858 	"/>
	<polygon points="219.613,151.862 212.75,168.229 220.098,168.253 226.962,160.546 231.617,160.564 226.055,173.242 
		191.084,173.244 193.367,168.255 198.143,168.223 205.137,151.866 200.676,151.844 202.652,146.855 226.289,146.851 
		224.115,151.834 	"/>
	<g>
		<path fill="#FFFFFF" d="M36.98,159.891c0,9.159-7.604,16.583-16.984,16.583c-9.378,0-16.98-7.426-16.98-16.583
			c0-9.163,7.604-16.586,16.98-16.586C29.377,143.305,36.98,150.729,36.98,159.891"/>
		<path d="M56.559,159.426L1.12,127.221l16.908,14.995c-0.222-0.01-0.444-0.012-0.667-0.012C7.775,142.204,0,150,0,159.62
			s7.775,17.419,17.361,17.419c0.61,0,1.21-0.038,1.796-0.094l-17.52,15.834L56.559,159.426z M4.437,159.622
			c0-8.954,7.239-16.209,16.159-16.209c8.927,0,16.168,7.258,16.168,16.209c0,8.954-7.241,16.206-16.168,16.206
			C11.676,175.827,4.437,168.577,4.437,159.622"/>
		<path d="M26.231,152.996H11.195l-1.182,3.944h2.771l-1.825,5.897H9.176l-1.368,3.94h16.883c4.029,0,8.841-1.15,9.898-6.294
			C35.327,156.871,34.136,152.996,26.231,152.996 M26,160.641c-0.47,1.109-2.29,2.198-4.003,2.198h-2.829l1.919-5.897h3.53
			C26.066,157.064,26.684,158.728,26,160.641"/>
		<path d="M8.646,179.354v-0.816h0.553c0.274,0,0.604,0.04,0.604,0.378c0,0.405-0.301,0.437-0.643,0.437H8.646V179.354z
			 M8.646,179.745h0.431l0.718,1.185h0.519l-0.779-1.225c0.414-0.043,0.724-0.254,0.724-0.753c0-0.568-0.34-0.806-1.015-0.806H8.189
			v2.781h0.459v-1.184L8.646,179.745L8.646,179.745z M11.603,179.495c0-1.515-1.143-2.517-2.459-2.517
			c-1.332,0-2.477,1.002-2.477,2.517c0,1.43,1.029,2.513,2.477,2.513C10.462,182.008,11.603,181.01,11.603,179.495 M11.068,179.495
			c0,1.231-0.848,2.075-1.924,2.075c-1.196,0-1.936-0.937-1.936-2.075c0-1.224,0.847-2.079,1.936-2.079
			C10.22,177.416,11.068,178.271,11.068,179.495"/>
	</g>
	<path d="M298.018,170.777v-0.819h0.553c0.277,0,0.604,0.042,0.604,0.381c0,0.402-0.304,0.438-0.646,0.438H298.018z
		 M298.018,171.168h0.428l0.729,1.198h0.515l-0.783-1.23c0.421-0.05,0.73-0.258,0.73-0.769c0-0.566-0.347-0.803-1.02-0.803h-1.062
		v2.8h0.463V171.168L298.018,171.168z M300.993,170.918c0-1.518-1.151-2.527-2.479-2.527c-1.338,0-2.484,1.01-2.484,2.527
		c0,1.439,1.035,2.529,2.484,2.529C299.842,173.447,300.993,172.438,300.993,170.918 M300.447,170.918
		c0,1.232-0.852,2.086-1.936,2.086c-1.195,0-1.939-0.934-1.939-2.086c0-1.229,0.85-2.085,1.939-2.085
		C299.596,168.833,300.447,169.688,300.447,170.918"/>
</g>
</svg>
