<?xml version="1.0" encoding="utf-8"?>
<!-- Generator: Adobe Illustrator 16.2.1, SVG Export Plug-In . SVG Version: 6.00 Build 0)  -->
<!DOCTYPE svg PUBLIC "-//W3C//DTD SVG 1.1//EN" "http://www.w3.org/Graphics/SVG/1.1/DTD/svg11.dtd">
<svg version="1.1" id="Layer_1" xmlns="http://www.w3.org/2000/svg" xmlns:xlink="http://www.w3.org/1999/xlink" x="0px" y="0px"
	 width="320px" height="320px" viewBox="0 0 320 320" enable-background="new 0 0 320 320" xml:space="preserve">
<rect x="-154.639" y="87.348" fill="#ABABAB" width="55.488" height="55.488"/>
<rect x="-154.639" y="16.162" width="55.488" height="55.488"/>
<g>
	<g>
		<g>
			<path d="M91.199,133.193l13.996,40.366l-7.306,2.531l-14.008-40.361l-9.133,3.168l-2.333-6.722l25.56-8.861l2.331,6.726
				L91.199,133.193z"/>
			<path d="M136.762,155.449l-10.506,1.622l-0.329,11.024l-7.472,1.145l1.864-50.706l10.458-1.625l17.554,47.718l-7.821,1.214
				L136.762,155.449z M134.367,148.612l-7.443-21.418l-0.529,22.651L134.367,148.612z"/>
			<path d="M198.796,117.502l-4.349,49.655l-7.309-0.646l3.204-36.521l-11.791,35.161l-4.304-0.377l-5.444-36.665l-3.199,36.515
				l-7.303-0.634l4.342-49.646l11.235,0.983l4.147,31.767l9.675-30.551L198.796,117.502z"/>
			<path d="M237.249,181.258l24.145-43.587l10.668,5.902c8.478,4.693,10.169,11.566,5.058,20.616l-9.04,16.332
				c-4.97,9.126-11.685,11.347-20.164,6.652L237.249,181.258z M247.467,178.789l3.292,1.825c2.332,1.263,4.375,1.479,6.13,0.682
				c1.141-0.54,2.104-1.342,2.921-2.399c0.817-1.074,1.667-2.398,2.533-3.976l6.991-12.621c1.047-1.912,1.764-3.461,2.136-4.631
				c0.376-1.179,0.501-2.294,0.366-3.356c-0.243-1.922-1.522-3.547-3.83-4.84l-3.289-1.82L247.467,178.789z"/>
		</g>
		<g>
			<path d="M65.594,147.199l-5.651,5.176c-3.218-3.901-6.275-5.146-9.18-3.735c-1.238,0.609-2.083,1.533-2.528,2.775
				c-0.466,1.312-0.377,2.631,0.27,3.958c0.793,1.632,2.14,2.827,4.042,3.568c1.233,0.474,4.008,1.142,8.305,2.01
				c4.416,0.926,7.607,1.837,9.589,2.73c3.06,1.406,5.344,3.668,6.873,6.806c1.607,3.285,1.823,6.529,0.652,9.709
				c-1.195,3.255-3.642,5.782-7.343,7.58c-7.629,3.723-14.184,1.748-19.683-5.925l5.658-5.15c3.523,4.896,7.146,6.434,10.871,4.613
				c1.569-0.767,2.576-1.859,3.025-3.25c0.452-1.39,0.313-2.828-0.416-4.34c-0.768-1.562-2.038-2.719-3.836-3.458
				c-1.497-0.646-3.846-1.312-7.039-1.994c-4.626-0.977-7.443-1.63-8.438-1.952c-4.543-1.47-7.684-3.977-9.4-7.502
				c-1.711-3.51-1.816-6.895-0.302-10.167c1.248-2.792,3.444-4.958,6.576-6.487C54.07,139.023,60.054,140.704,65.594,147.199z"/>
		</g>
		<g>
			<path d="M219.566,153.547l-5.956,19.296l-7.39-2.283l14.677-47.625l12.253,3.772c4.561,1.409,7.583,3.464,9.068,6.155
				c1.771,3.197,1.878,7.285,0.347,12.262c-1.529,4.977-3.932,8.29-7.186,9.933c-1.448,0.727-3.029,1.097-4.771,1.097
				c-1.735,0-3.795-0.376-6.194-1.109L219.566,153.547z M221.658,146.748l3.215,0.985c2.722,0.846,4.766,1.002,6.123,0.477
				c1.715-0.62,3.038-2.429,3.97-5.423c0.922-3.008,0.844-5.241-0.229-6.725c-0.828-1.192-2.604-2.213-5.326-3.045l-3.205-0.992
				L221.658,146.748z"/>
		</g>
	</g>
	<g>
		<path d="M78.672,203.066l0.211,0.042l-0.746,2.349H71.45v-0.237h0.322c0.364,0,0.625-0.116,0.786-0.359
			c0.089-0.137,0.132-0.448,0.132-0.94v-5.581c0-0.537-0.057-0.871-0.177-1.014c-0.167-0.182-0.413-0.273-0.741-0.273h-0.321v-0.239
			h3.911v0.239c-0.459-0.006-0.782,0.034-0.968,0.123c-0.184,0.092-0.309,0.203-0.379,0.338c-0.066,0.143-0.103,0.466-0.103,0.978
			v5.43c0,0.356,0.037,0.595,0.103,0.73c0.049,0.087,0.129,0.15,0.235,0.192c0.107,0.047,0.438,0.065,0.996,0.065h0.63
			c0.664,0,1.127-0.051,1.397-0.148c0.269-0.098,0.509-0.27,0.729-0.516C78.228,203.992,78.452,203.601,78.672,203.066z"/>
		<path d="M93.073,196.613c1.124,0,2.095,0.428,2.921,1.279c0.821,0.855,1.233,1.915,1.233,3.188c0,1.312-0.417,2.404-1.245,3.268
			c-0.829,0.869-1.833,1.303-3.009,1.303c-1.19,0-2.189-0.42-2.997-1.27c-0.811-0.844-1.214-1.937-1.214-3.277
			c0-1.377,0.467-2.497,1.403-3.361C90.971,196.99,91.948,196.613,93.073,196.613z M92.955,197.078
			c-0.774,0-1.395,0.288-1.865,0.859c-0.582,0.717-0.875,1.763-0.875,3.134c0,1.413,0.302,2.502,0.909,3.258
			c0.461,0.58,1.077,0.868,1.835,0.868c0.812,0,1.483-0.313,2.012-0.952c0.53-0.634,0.795-1.636,0.795-2.994
			c0-1.482-0.295-2.581-0.872-3.309C94.426,197.366,93.779,197.078,92.955,197.078z"/>
		<path d="M112.851,196.613v2.988h-0.232c-0.079-0.576-0.22-1.028-0.415-1.371c-0.198-0.338-0.478-0.608-0.845-0.809
			c-0.361-0.195-0.742-0.302-1.133-0.302c-0.438,0-0.804,0.14-1.094,0.404c-0.293,0.271-0.433,0.582-0.433,0.925
			c0,0.266,0.09,0.505,0.272,0.719c0.266,0.321,0.893,0.746,1.88,1.279c0.812,0.432,1.361,0.765,1.656,0.996
			c0.295,0.234,0.522,0.507,0.683,0.82c0.157,0.314,0.241,0.645,0.241,0.985c0,0.653-0.254,1.226-0.761,1.693
			c-0.506,0.474-1.163,0.713-1.96,0.713c-0.252,0-0.491-0.023-0.709-0.056c-0.133-0.022-0.405-0.098-0.822-0.236
			c-0.412-0.134-0.673-0.201-0.783-0.201c-0.107,0-0.195,0.034-0.252,0.099c-0.062,0.062-0.107,0.194-0.135,0.395h-0.235v-2.961
			h0.235c0.109,0.618,0.259,1.083,0.442,1.39c0.188,0.312,0.474,0.565,0.859,0.768c0.386,0.204,0.805,0.311,1.266,0.311
			c0.531,0,0.949-0.146,1.257-0.425c0.309-0.284,0.464-0.613,0.464-0.994c0-0.214-0.057-0.428-0.179-0.644
			c-0.117-0.224-0.297-0.419-0.54-0.609c-0.17-0.13-0.62-0.399-1.36-0.809c-0.738-0.419-1.264-0.746-1.58-0.995
			c-0.307-0.246-0.55-0.52-0.708-0.812c-0.162-0.299-0.239-0.624-0.239-0.984c0-0.621,0.234-1.151,0.709-1.603
			c0.481-0.45,1.086-0.674,1.821-0.674c0.459,0,0.945,0.111,1.458,0.336c0.237,0.106,0.407,0.162,0.506,0.162
			c0.107,0,0.2-0.032,0.271-0.098c0.065-0.064,0.125-0.202,0.169-0.4H112.851L112.851,196.613z"/>
		<path d="M140.918,202.56h-3.342l-0.586,1.366c-0.147,0.336-0.219,0.586-0.219,0.749c0,0.136,0.062,0.246,0.188,0.347
			c0.126,0.104,0.397,0.165,0.814,0.197v0.236h-2.723v-0.236c0.361-0.06,0.592-0.145,0.7-0.246c0.219-0.204,0.459-0.625,0.721-1.246
			l3.04-7.113h0.223l3.011,7.193c0.241,0.576,0.459,0.948,0.655,1.123c0.198,0.174,0.476,0.271,0.829,0.29v0.237h-3.414v-0.237
			c0.345-0.017,0.577-0.075,0.698-0.172c0.122-0.1,0.181-0.217,0.181-0.357c0-0.185-0.083-0.478-0.254-0.884L140.918,202.56z
			 M140.745,202.09l-1.469-3.496l-1.501,3.496H140.745z"/>
		<path d="M153.341,196.812h2.345l5.287,6.483v-4.984c0-0.532-0.063-0.865-0.179-0.995c-0.157-0.181-0.407-0.266-0.745-0.266h-0.3
			v-0.238h3.011v0.238h-0.308c-0.362,0-0.623,0.108-0.776,0.328c-0.093,0.143-0.144,0.45-0.144,0.938v7.285h-0.23l-5.7-6.96v5.323
			c0,0.53,0.057,0.858,0.172,0.995c0.162,0.171,0.409,0.263,0.748,0.263h0.305v0.239h-3.009v-0.239h0.297
			c0.37,0,0.634-0.109,0.789-0.332c0.093-0.14,0.138-0.448,0.138-0.93v-6.011c-0.25-0.293-0.443-0.488-0.572-0.578
			c-0.13-0.099-0.319-0.182-0.568-0.264c-0.121-0.04-0.309-0.056-0.562-0.056v-0.239L153.341,196.812L153.341,196.812z"/>
		<path d="M180.101,196.613l0.218,2.729h-0.218c-0.229-0.677-0.521-1.194-0.875-1.54c-0.516-0.494-1.176-0.743-1.984-0.743
			c-1.098,0-1.938,0.439-2.511,1.312c-0.479,0.734-0.723,1.61-0.723,2.622c0,0.828,0.163,1.576,0.479,2.257
			c0.323,0.684,0.741,1.181,1.252,1.495c0.519,0.32,1.047,0.476,1.585,0.476c0.324,0,0.635-0.044,0.933-0.123
			c0.294-0.076,0.581-0.197,0.857-0.354v-2.497c0-0.435-0.036-0.719-0.098-0.849c-0.067-0.142-0.169-0.239-0.311-0.307
			c-0.135-0.071-0.375-0.109-0.73-0.109v-0.243h3.348v0.243h-0.163c-0.326,0-0.55,0.113-0.675,0.331
			c-0.087,0.156-0.129,0.47-0.129,0.935v2.646c-0.488,0.266-0.973,0.453-1.446,0.577c-0.477,0.13-1.009,0.186-1.586,0.186
			c-1.671,0-2.936-0.537-3.807-1.609c-0.65-0.801-0.978-1.729-0.978-2.777c0-0.761,0.182-1.489,0.549-2.189
			c0.433-0.83,1.027-1.462,1.786-1.906c0.632-0.376,1.38-0.558,2.245-0.558c0.312,0,0.6,0.024,0.854,0.074
			c0.261,0.054,0.62,0.166,1.088,0.342c0.243,0.093,0.404,0.135,0.479,0.135c0.083,0,0.15-0.042,0.213-0.11
			c0.048-0.076,0.088-0.219,0.107-0.44h0.239V196.613L180.101,196.613z"/>
		<path d="M193.378,197.283v3.417h1.901c0.492,0,0.823-0.074,0.99-0.223c0.224-0.196,0.34-0.545,0.372-1.032h0.232v3.007h-0.232
			c-0.061-0.42-0.123-0.691-0.182-0.809c-0.075-0.147-0.204-0.269-0.377-0.353c-0.172-0.084-0.442-0.126-0.804-0.126h-1.901v2.848
			c0,0.384,0.018,0.616,0.048,0.7c0.041,0.079,0.094,0.147,0.182,0.195c0.081,0.051,0.249,0.075,0.481,0.075h1.464
			c0.494,0,0.847-0.038,1.065-0.103c0.224-0.065,0.438-0.2,0.642-0.399c0.265-0.264,0.531-0.661,0.812-1.195h0.248l-0.742,2.171
			h-6.664v-0.239h0.31c0.204,0,0.396-0.048,0.577-0.146c0.139-0.069,0.231-0.176,0.275-0.306c0.051-0.14,0.079-0.419,0.079-0.837
			v-5.616c0-0.546-0.057-0.889-0.168-1.014c-0.151-0.172-0.409-0.252-0.766-0.252h-0.309v-0.238h6.664l0.098,1.894h-0.249
			c-0.088-0.454-0.186-0.766-0.293-0.938c-0.106-0.168-0.27-0.3-0.483-0.391c-0.168-0.061-0.47-0.093-0.896-0.093h-2.376v0.003
			H193.378z"/>
		<path d="M215.247,203.066l0.214,0.042l-0.739,2.349h-6.694v-0.237h0.325c0.363,0,0.63-0.116,0.785-0.359
			c0.09-0.137,0.134-0.448,0.134-0.94v-5.581c0-0.537-0.056-0.871-0.177-1.014c-0.165-0.182-0.414-0.273-0.742-0.273h-0.325v-0.239
			h3.915v0.239c-0.458-0.006-0.778,0.034-0.965,0.123c-0.186,0.092-0.312,0.203-0.381,0.338c-0.063,0.143-0.103,0.466-0.103,0.978
			v5.43c0,0.356,0.039,0.595,0.103,0.73c0.049,0.087,0.132,0.15,0.239,0.192c0.106,0.047,0.441,0.065,0.994,0.065h0.633
			c0.665,0,1.125-0.051,1.395-0.148s0.512-0.27,0.73-0.516C214.806,203.992,215.028,203.601,215.247,203.066z"/>
		<path d="M227.605,197.283v3.417h1.9c0.497,0,0.822-0.074,0.99-0.223c0.219-0.196,0.344-0.545,0.367-1.032h0.236v3.007h-0.236
			c-0.056-0.42-0.123-0.691-0.181-0.809c-0.071-0.147-0.2-0.269-0.378-0.353c-0.171-0.084-0.437-0.126-0.799-0.126h-1.9v2.848
			c0,0.384,0.018,0.616,0.048,0.7c0.039,0.079,0.093,0.147,0.181,0.195c0.088,0.051,0.249,0.075,0.484,0.075h1.462
			c0.488,0,0.844-0.038,1.064-0.103c0.224-0.065,0.438-0.2,0.637-0.399c0.266-0.264,0.537-0.661,0.815-1.195h0.254l-0.745,2.171
			h-6.663v-0.239h0.307c0.205,0,0.396-0.048,0.579-0.146c0.137-0.069,0.23-0.176,0.273-0.306c0.051-0.14,0.075-0.419,0.075-0.837
			v-5.616c0-0.546-0.051-0.889-0.162-1.014c-0.152-0.172-0.41-0.252-0.766-0.252h-0.307v-0.238h6.662l0.093,1.894h-0.248
			c-0.089-0.454-0.187-0.766-0.297-0.938c-0.107-0.168-0.27-0.3-0.479-0.391c-0.171-0.061-0.468-0.093-0.902-0.093h-2.365V197.283
			L227.605,197.283z"/>
		<path d="M247.977,196.613v2.988h-0.232c-0.079-0.576-0.219-1.028-0.415-1.371c-0.194-0.338-0.479-0.608-0.845-0.809
			c-0.362-0.195-0.744-0.302-1.136-0.302c-0.439,0-0.804,0.14-1.097,0.404c-0.288,0.271-0.435,0.582-0.435,0.925
			c0,0.266,0.093,0.505,0.274,0.719c0.263,0.321,0.893,0.746,1.878,1.279c0.813,0.432,1.359,0.765,1.652,0.996
			c0.298,0.234,0.521,0.507,0.684,0.82c0.158,0.314,0.244,0.645,0.244,0.985c0,0.653-0.257,1.226-0.764,1.693
			c-0.507,0.474-1.159,0.713-1.958,0.713c-0.252,0-0.488-0.023-0.709-0.056c-0.135-0.022-0.404-0.098-0.819-0.236
			c-0.419-0.134-0.678-0.201-0.789-0.201c-0.107,0-0.192,0.034-0.249,0.099c-0.061,0.062-0.107,0.194-0.143,0.395h-0.234v-2.961
			h0.234c0.111,0.618,0.264,1.083,0.449,1.39c0.191,0.312,0.474,0.565,0.857,0.768c0.387,0.204,0.808,0.311,1.266,0.311
			c0.538,0,0.951-0.146,1.259-0.425c0.309-0.284,0.464-0.613,0.464-0.994c0-0.214-0.059-0.428-0.182-0.644
			c-0.115-0.224-0.296-0.419-0.539-0.609c-0.167-0.13-0.622-0.399-1.362-0.809c-0.733-0.419-1.26-0.746-1.576-0.995
			c-0.311-0.246-0.546-0.52-0.71-0.812c-0.163-0.299-0.237-0.624-0.237-0.984c0-0.621,0.232-1.151,0.706-1.603
			c0.479-0.45,1.083-0.674,1.817-0.674c0.46,0,0.949,0.111,1.461,0.336c0.241,0.106,0.408,0.162,0.507,0.162
			c0.106,0,0.203-0.032,0.269-0.098c0.065-0.064,0.125-0.202,0.172-0.4H247.977L247.977,196.613z"/>
	</g>
</g>
</svg>
